<?plantuml 1.2026.1?><svg xmlns="http://www.w3.org/2000/svg" xmlns:xlink="http://www.w3.org/1999/xlink" contentStyleType="text/css" data-diagram-type="CLASS" height="1176px" preserveAspectRatio="none" style="width:1033px;height:1176px;background:#FFFFFF;" version="1.1" viewBox="0 0 1033 1176" width="1033px" zoomAndPan="magnify"><defs/><g><!--class Runner--><g class="entity" data-qualified-name="Runner" data-source-line="4" id="ent0002"><rect fill="#F1F1F1" height="48" rx="2.5" ry="2.5" style="stroke:#181818;stroke-width:0.5;" width="80.4463" x="80.63" y="807.69"/><ellipse cx="95.63" cy="823.69" fill="#ADD1B2" rx="11" ry="11" style="stroke:#181818;stroke-width:1;"/><path d="M98.1031,829.8331 Q97.5221,830.1319 96.8829,830.2813 Q96.2438,830.4307 95.5382,830.4307 Q93.0314,830.4307 91.7115,828.7789 Q90.3917,827.127 90.3917,824.0059 Q90.3917,820.8765 91.7115,819.2247 Q93.0314,817.5728 95.5382,817.5728 Q96.2438,817.5728 96.8912,817.7222 Q97.5387,817.8716 98.1031,818.1705 L98.1031,820.8931 Q97.4723,820.3121 96.8788,820.0423 Q96.2853,819.7725 95.6544,819.7725 Q94.3097,819.7725 93.6249,820.8392 Q92.9401,821.9058 92.9401,824.0059 Q92.9401,826.0977 93.6249,827.1644 Q94.3097,828.231 95.6544,828.231 Q96.2853,828.231 96.8788,827.9612 Q97.4723,827.6915 98.1031,827.1104 Z " fill="#000000"/><text fill="#000000" font-family="sans-serif" font-size="14" lengthAdjust="spacing" textLength="48.4463" x="109.63" y="828.981">Runner</text><line style="stroke:#181818;stroke-width:0.5;" x1="81.63" x2="160.0763" y1="839.69" y2="839.69"/><line style="stroke:#181818;stroke-width:0.5;" x1="81.63" x2="160.0763" y1="847.69" y2="847.69"/></g><!--class Customer--><g class="entity" data-qualified-name="Customer" data-source-line="6" id="ent0003"><rect fill="#F1F1F1" height="229.3711" rx="2.5" ry="2.5" style="stroke:#181818;stroke-width:0.5;" width="203.1328" x="19.28" y="494"/><ellipse cx="83.6233" cy="510" fill="#ADD1B2" rx="11" ry="11" style="stroke:#181818;stroke-width:1;"/><path d="M86.0964,516.1431 Q85.5154,516.4419 84.8762,516.5913 Q84.237,516.7407 83.5315,516.7407 Q81.0246,516.7407 79.7048,515.0889 Q78.385,513.437 78.385,510.3159 Q78.385,507.1865 79.7048,505.5347 Q81.0246,503.8828 83.5315,503.8828 Q84.237,503.8828 84.8845,504.0322 Q85.532,504.1816 86.0964,504.4805 L86.0964,507.2031 Q85.4655,506.6221 84.872,506.3523 Q84.2785,506.0825 83.6477,506.0825 Q82.3029,506.0825 81.6181,507.1492 Q80.9333,508.2158 80.9333,510.3159 Q80.9333,512.4077 81.6181,513.4744 Q82.3029,514.541 83.6477,514.541 Q84.2785,514.541 84.872,514.2712 Q85.4655,514.0015 86.0964,513.4204 Z " fill="#000000"/><text fill="#000000" font-family="sans-serif" font-size="14" lengthAdjust="spacing" textLength="65.9463" x="104.1233" y="515.291">Customer</text><line style="stroke:#181818;stroke-width:0.5;" x1="20.28" x2="221.4128" y1="526" y2="526"/><text fill="#000000" font-family="sans-serif" font-size="14" lengthAdjust="spacing" textLength="98.0547" x="25.28" y="543.5352">-email : String</text><text fill="#000000" font-family="sans-serif" font-size="14" lengthAdjust="spacing" textLength="98.6494" x="25.28" y="560.0234">-name : String</text><text fill="#000000" font-family="sans-serif" font-size="14" lengthAdjust="spacing" textLength="150.2813" x="25.28" y="576.5117">-orders : List&lt;Order&gt;</text><line style="stroke:#181818;stroke-width:0.5;" x1="20.28" x2="221.4128" y1="583.4648" y2="583.4648"/><text fill="#000000" font-family="sans-serif" font-size="14" lengthAdjust="spacing" textLength="191.1328" x="25.28" y="601">+createOrder() : FlightOrder</text><text fill="#000000" font-family="sans-serif" font-size="14" lengthAdjust="spacing" textLength="168.6904" x="25.28" y="617.4883">-isOrderValid() : boolean</text><text fill="#000000" font-family="sans-serif" font-size="14" lengthAdjust="spacing" textLength="131.7422" x="25.28" y="633.9766">+getEmail() : String</text><text fill="#000000" font-family="sans-serif" font-size="14" lengthAdjust="spacing" textLength="118.8838" x="25.28" y="650.4648">+setEmail() : void</text><text fill="#000000" font-family="sans-serif" font-size="14" lengthAdjust="spacing" textLength="134.2031" x="25.28" y="666.9531">+getName() : String</text><text fill="#000000" font-family="sans-serif" font-size="14" lengthAdjust="spacing" textLength="121.3447" x="25.28" y="683.4414">+setName() : void</text><text fill="#000000" font-family="sans-serif" font-size="14" lengthAdjust="spacing" textLength="186.457" x="25.28" y="699.9297">+getOrders() : List&lt;Order&gt;</text><text fill="#000000" font-family="sans-serif" font-size="14" lengthAdjust="spacing" textLength="128.4814" x="25.28" y="716.418">+setOrders() : void</text></g><!--class Passenger--><g class="entity" data-qualified-name="Passenger" data-source-line="19" id="ent0004"><rect fill="#F1F1F1" height="80.9766" rx="2.5" ry="2.5" style="stroke:#181818;stroke-width:0.5;" width="146.2031" x="785.29" y="482.2"/><ellipse cx="820.8612" cy="498.2" fill="#ADD1B2" rx="11" ry="11" style="stroke:#181818;stroke-width:1;"/><path d="M823.3344,504.3431 Q822.7533,504.6419 822.1142,504.7913 Q821.475,504.9407 820.7694,504.9407 Q818.2626,504.9407 816.9428,503.2889 Q815.623,501.637 815.623,498.5159 Q815.623,495.3865 816.9428,493.7347 Q818.2626,492.0828 820.7694,492.0828 Q821.475,492.0828 822.1225,492.2322 Q822.7699,492.3816 823.3344,492.6805 L823.3344,495.4031 Q822.7035,494.8221 822.11,494.5523 Q821.5165,494.2825 820.8857,494.2825 Q819.5409,494.2825 818.8561,495.3492 Q818.1713,496.4158 818.1713,498.5159 Q818.1713,500.6077 818.8561,501.6744 Q819.5409,502.741 820.8857,502.741 Q821.5165,502.741 822.11,502.4712 Q822.7035,502.2015 823.3344,501.6204 Z " fill="#000000"/><text fill="#000000" font-family="sans-serif" font-size="14" lengthAdjust="spacing" textLength="68.4893" x="839.4326" y="503.491">Passenger</text><line style="stroke:#181818;stroke-width:0.5;" x1="786.29" x2="930.4931" y1="514.2" y2="514.2"/><text fill="#000000" font-family="sans-serif" font-size="14" lengthAdjust="spacing" textLength="88.3408" x="791.29" y="531.7352">-name : final</text><line style="stroke:#181818;stroke-width:0.5;" x1="786.29" x2="930.4931" y1="538.6883" y2="538.6883"/><text fill="#000000" font-family="sans-serif" font-size="14" lengthAdjust="spacing" textLength="134.2031" x="791.29" y="556.2234">+getName() : String</text></g><!--class Airport--><g class="entity" data-qualified-name="Airport" data-source-line="23" id="ent0005"><rect fill="#F1F1F1" height="229.3711" rx="2.5" ry="2.5" style="stroke:#181818;stroke-width:0.5;" width="227.7012" x="7" y="7"/><ellipse cx="92.6953" cy="23" fill="#ADD1B2" rx="11" ry="11" style="stroke:#181818;stroke-width:1;"/><path d="M95.1685,29.1431 Q94.5874,29.4419 93.9482,29.5913 Q93.3091,29.7407 92.6035,29.7407 Q90.0967,29.7407 88.7769,28.0889 Q87.457,26.437 87.457,23.3159 Q87.457,20.1865 88.7769,18.5347 Q90.0967,16.8828 92.6035,16.8828 Q93.3091,16.8828 93.9565,17.0322 Q94.604,17.1816 95.1685,17.4805 L95.1685,20.2031 Q94.5376,19.6221 93.9441,19.3523 Q93.3506,19.0825 92.7197,19.0825 Q91.375,19.0825 90.6902,20.1492 Q90.0054,21.2158 90.0054,23.3159 Q90.0054,25.4077 90.6902,26.4744 Q91.375,27.541 92.7197,27.541 Q93.3506,27.541 93.9441,27.2712 Q94.5376,27.0015 95.1685,26.4204 Z " fill="#000000"/><text fill="#000000" font-family="sans-serif" font-size="14" lengthAdjust="spacing" textLength="47.8105" x="113.1953" y="28.291">Airport</text><line style="stroke:#181818;stroke-width:0.5;" x1="8" x2="233.7012" y1="39" y2="39"/><text fill="#000000" font-family="sans-serif" font-size="14" lengthAdjust="spacing" textLength="88.3408" x="13" y="56.5352">-name : final</text><text fill="#000000" font-family="sans-serif" font-size="14" lengthAdjust="spacing" textLength="83.4326" x="13" y="73.0234">-code : final</text><text fill="#000000" font-family="sans-serif" font-size="14" lengthAdjust="spacing" textLength="105.1709" x="13" y="89.5117">-location : final</text><text fill="#000000" font-family="sans-serif" font-size="14" lengthAdjust="spacing" textLength="148.8184" x="13" y="106">-flights : List&lt;Flight&gt;</text><text fill="#000000" font-family="sans-serif" font-size="14" lengthAdjust="spacing" textLength="179.874" x="13" y="122.4883">-allowedAircrafts : String[]</text><line style="stroke:#181818;stroke-width:0.5;" x1="8" x2="233.7012" y1="129.4414" y2="129.4414"/><text fill="#000000" font-family="sans-serif" font-size="14" lengthAdjust="spacing" textLength="134.2031" x="13" y="146.9766">+getName() : String</text><text fill="#000000" font-family="sans-serif" font-size="14" lengthAdjust="spacing" textLength="130.1563" x="13" y="163.4648">+getCode() : String</text><text fill="#000000" font-family="sans-serif" font-size="14" lengthAdjust="spacing" textLength="152.7969" x="13" y="179.9531">+getLocation() : String</text><text fill="#000000" font-family="sans-serif" font-size="14" lengthAdjust="spacing" textLength="185.0762" x="13" y="196.4414">+getFlights() : List&lt;Flight&gt;</text><text fill="#000000" font-family="sans-serif" font-size="14" lengthAdjust="spacing" textLength="127.791" x="13" y="212.9297">+setFlights() : void</text><text fill="#000000" font-family="sans-serif" font-size="14" lengthAdjust="spacing" textLength="215.7012" x="13" y="229.418">+getAllowedAircrafts() : String[]</text></g><!--class Order--><g class="entity" data-qualified-name="Order" data-source-line="36" id="ent0006"><rect fill="#F1F1F1" height="278.8359" rx="2.5" ry="2.5" style="stroke:#181818;stroke-width:0.5;" width="257.5469" x="333.82" y="469.27"/><ellipse cx="438.8713" cy="485.27" fill="#ADD1B2" rx="11" ry="11" style="stroke:#181818;stroke-width:1;"/><path d="M441.3444,491.4131 Q440.7634,491.7119 440.1242,491.8613 Q439.485,492.0107 438.7795,492.0107 Q436.2726,492.0107 434.9528,490.3589 Q433.633,488.707 433.633,485.5859 Q433.633,482.4565 434.9528,480.8047 Q436.2726,479.1528 438.7795,479.1528 Q439.485,479.1528 440.1325,479.3022 Q440.78,479.4516 441.3444,479.7505 L441.3444,482.4731 Q440.7136,481.8921 440.12,481.6223 Q439.5265,481.3525 438.8957,481.3525 Q437.551,481.3525 436.8661,482.4192 Q436.1813,483.4858 436.1813,485.5859 Q436.1813,487.6777 436.8661,488.7444 Q437.551,489.811 438.8957,489.811 Q439.5265,489.811 440.12,489.5412 Q440.7136,489.2715 441.3444,488.6904 Z " fill="#000000"/><text fill="#000000" font-family="sans-serif" font-size="14" lengthAdjust="spacing" textLength="38.9443" x="459.3713" y="490.561">Order</text><line style="stroke:#181818;stroke-width:0.5;" x1="334.82" x2="590.3669" y1="501.27" y2="501.27"/><text fill="#000000" font-family="sans-serif" font-size="14" lengthAdjust="spacing" textLength="63.9092" x="339.82" y="518.8052">-id : final</text><text fill="#000000" font-family="sans-serif" font-size="14" lengthAdjust="spacing" textLength="101.7051" x="339.82" y="535.2934">-price : double</text><text fill="#000000" font-family="sans-serif" font-size="14" lengthAdjust="spacing" textLength="107.5293" x="339.82" y="551.7817">-false : boolean</text><text fill="#000000" font-family="sans-serif" font-size="14" lengthAdjust="spacing" textLength="150.7666" x="339.82" y="568.27">-customer : Customer</text><text fill="#000000" font-family="sans-serif" font-size="14" lengthAdjust="spacing" textLength="212.7207" x="339.82" y="584.7583">-passengers : List&lt;Passenger&gt;</text><line style="stroke:#181818;stroke-width:0.5;" x1="334.82" x2="590.3669" y1="591.7114" y2="591.7114"/><text fill="#000000" font-family="sans-serif" font-size="14" lengthAdjust="spacing" textLength="102.0537" x="339.82" y="609.2466">+getId() : UUID</text><text fill="#000000" font-family="sans-serif" font-size="14" lengthAdjust="spacing" textLength="134.5313" x="339.82" y="625.7348">+getPrice() : double</text><text fill="#000000" font-family="sans-serif" font-size="14" lengthAdjust="spacing" textLength="114.8848" x="339.82" y="642.2231">+setPrice() : void</text><text fill="#000000" font-family="sans-serif" font-size="14" lengthAdjust="spacing" textLength="187.1816" x="339.82" y="658.7114">+getCustomer() : Customer</text><text fill="#000000" font-family="sans-serif" font-size="14" lengthAdjust="spacing" textLength="148.3467" x="339.82" y="675.1997">+setCustomer() : void</text><text fill="#000000" font-family="sans-serif" font-size="14" lengthAdjust="spacing" textLength="245.5469" x="339.82" y="691.688">+getPassengers() : List&lt;Passenger&gt;</text><text fill="#000000" font-family="sans-serif" font-size="14" lengthAdjust="spacing" textLength="158.0264" x="339.82" y="708.1763">+setPassengers() : void</text><text fill="#000000" font-family="sans-serif" font-size="14" lengthAdjust="spacing" textLength="145.0654" x="339.82" y="724.6645">+isClosed() : boolean</text><text fill="#000000" font-family="sans-serif" font-size="14" lengthAdjust="spacing" textLength="128.4814" x="339.82" y="741.1528">+setClosed() : void</text></g><!--class FlightOrder--><g class="entity" data-qualified-name="FlightOrder" data-source-line="52" id="ent0007"><rect fill="#F1F1F1" height="196.3945" rx="2.5" ry="2.5" style="stroke:#181818;stroke-width:0.5;" width="335.791" x="690.49" y="598.49"/><ellipse cx="815.5364" cy="614.49" fill="#ADD1B2" rx="11" ry="11" style="stroke:#181818;stroke-width:1;"/><path d="M818.0095,620.6331 Q817.4285,620.9319 816.7893,621.0813 Q816.1502,621.2307 815.4446,621.2307 Q812.9378,621.2307 811.6179,619.5789 Q810.2981,617.927 810.2981,614.8059 Q810.2981,611.6765 811.6179,610.0247 Q812.9378,608.3728 815.4446,608.3728 Q816.1502,608.3728 816.7976,608.5222 Q817.4451,608.6716 818.0095,608.9705 L818.0095,611.6931 Q817.3787,611.1121 816.7852,610.8423 Q816.1917,610.5725 815.5608,610.5725 Q814.2161,610.5725 813.5313,611.6392 Q812.8464,612.7058 812.8464,614.8059 Q812.8464,616.8977 813.5313,617.9644 Q814.2161,619.031 815.5608,619.031 Q816.1917,619.031 816.7852,618.7612 Q817.3787,618.4915 818.0095,617.9104 Z " fill="#000000"/><text fill="#000000" font-family="sans-serif" font-size="14" lengthAdjust="spacing" textLength="77.1982" x="836.0364" y="619.781">FlightOrder</text><line style="stroke:#181818;stroke-width:0.5;" x1="691.49" x2="1025.281" y1="630.49" y2="630.49"/><text fill="#000000" font-family="sans-serif" font-size="14" lengthAdjust="spacing" textLength="94.083" x="696.49" y="648.0252">-flights : final</text><line style="stroke:#181818;stroke-width:0.5;" x1="691.49" x2="1025.281" y1="654.9783" y2="654.9783"/><text fill="#000000" font-family="sans-serif" font-size="14" lengthAdjust="spacing" textLength="323.791" x="696.49" y="672.5134">+getScheduledFlights() : List&lt;ScheduledFlight&gt;</text><text fill="#000000" font-family="sans-serif" font-size="14" lengthAdjust="spacing" textLength="168.6904" x="696.49" y="689.0017">-isOrderValid() : boolean</text><text fill="#000000" font-family="sans-serif" font-size="14" lengthAdjust="spacing" textLength="321.6924" x="696.49" y="705.49">+processOrderWithCreditCardDetail() : boolean</text><text fill="#000000" font-family="sans-serif" font-size="14" lengthAdjust="spacing" textLength="282.3447" x="696.49" y="721.9783">+processOrderWithCreditCard() : boolean</text><text fill="#000000" font-family="sans-serif" font-size="14" lengthAdjust="spacing" textLength="236.4619" x="696.49" y="738.4666">-cardIsPresentAndValid() : boolean</text><text fill="#000000" font-family="sans-serif" font-size="14" lengthAdjust="spacing" textLength="251.3779" x="696.49" y="754.9548">+processOrderWithPayPal() : boolean</text><text fill="#000000" font-family="sans-serif" font-size="14" lengthAdjust="spacing" textLength="214.874" x="696.49" y="771.4431">+payWithCreditCard() : boolean</text><text fill="#000000" font-family="sans-serif" font-size="14" lengthAdjust="spacing" textLength="183.9072" x="696.49" y="787.9314">+payWithPayPal() : boolean</text></g><!--class CreditCard--><g class="entity" data-qualified-name="CreditCard" data-source-line="63" id="ent0008"><rect fill="#F1F1F1" height="196.3945" rx="2.5" ry="2.5" style="stroke:#181818;stroke-width:0.5;" width="167.9893" x="36.86" y="890.49"/><ellipse cx="80.0848" cy="906.49" fill="#ADD1B2" rx="11" ry="11" style="stroke:#181818;stroke-width:1;"/><path d="M82.5579,912.6331 Q81.9768,912.9319 81.3377,913.0813 Q80.6985,913.2307 79.993,913.2307 Q77.4861,913.2307 76.1663,911.5789 Q74.8465,909.927 74.8465,906.8059 Q74.8465,903.6765 76.1663,902.0247 Q77.4861,900.3728 79.993,900.3728 Q80.6985,900.3728 81.346,900.5222 Q81.9934,900.6716 82.5579,900.9705 L82.5579,903.6931 Q81.927,903.1121 81.3335,902.8423 Q80.74,902.5725 80.1092,902.5725 Q78.7644,902.5725 78.0796,903.6392 Q77.3948,904.7058 77.3948,906.8059 Q77.3948,908.8977 78.0796,909.9644 Q78.7644,911.031 80.1092,911.031 Q80.74,911.031 81.3335,910.7612 Q81.927,910.4915 82.5579,909.9104 Z " fill="#000000"/><text fill="#000000" font-family="sans-serif" font-size="14" lengthAdjust="spacing" textLength="73.2676" x="100.3569" y="911.781">CreditCard</text><line style="stroke:#181818;stroke-width:0.5;" x1="37.86" x2="203.8493" y1="922.49" y2="922.49"/><text fill="#000000" font-family="sans-serif" font-size="14" lengthAdjust="spacing" textLength="120.1621" x="42.86" y="940.0252">-amount : double</text><text fill="#000000" font-family="sans-serif" font-size="14" lengthAdjust="spacing" textLength="114.1465" x="42.86" y="956.5134">-number : String</text><text fill="#000000" font-family="sans-serif" font-size="14" lengthAdjust="spacing" textLength="82.2227" x="42.86" y="973.0017">-date : Date</text><text fill="#000000" font-family="sans-serif" font-size="14" lengthAdjust="spacing" textLength="83.0225" x="42.86" y="989.49">-cvv : String</text><text fill="#000000" font-family="sans-serif" font-size="14" lengthAdjust="spacing" textLength="107.5498" x="42.86" y="1005.9783">-valid : boolean</text><line style="stroke:#181818;stroke-width:0.5;" x1="37.86" x2="203.8493" y1="1012.9314" y2="1012.9314"/><text fill="#000000" font-family="sans-serif" font-size="14" lengthAdjust="spacing" textLength="136.3428" x="42.86" y="1030.4666">+setAmount() : void</text><text fill="#000000" font-family="sans-serif" font-size="14" lengthAdjust="spacing" textLength="155.9893" x="42.86" y="1046.9548">+getAmount() : double</text><text fill="#000000" font-family="sans-serif" font-size="14" lengthAdjust="spacing" textLength="132.7744" x="42.86" y="1063.4431">+isValid() : boolean</text><text fill="#000000" font-family="sans-serif" font-size="14" lengthAdjust="spacing" textLength="116.1904" x="42.86" y="1079.9314">+setValid() : void</text></g><!--class Paypal--><g class="entity" data-qualified-name="Paypal" data-source-line="74" id="ent0009"><rect fill="#F1F1F1" height="48" rx="2.5" ry="2.5" style="stroke:#181818;stroke-width:0.5;" width="75.374" x="83.16" y="1121.69"/><ellipse cx="98.16" cy="1137.69" fill="#ADD1B2" rx="11" ry="11" style="stroke:#181818;stroke-width:1;"/><path d="M100.6331,1143.8331 Q100.0521,1144.1319 99.4129,1144.2813 Q98.7738,1144.4307 98.0682,1144.4307 Q95.5614,1144.4307 94.2415,1142.7789 Q92.9217,1141.127 92.9217,1138.0059 Q92.9217,1134.8765 94.2415,1133.2247 Q95.5614,1131.5728 98.0682,1131.5728 Q98.7738,1131.5728 99.4212,1131.7222 Q100.0687,1131.8716 100.6331,1132.1705 L100.6331,1134.8931 Q100.0023,1134.3121 99.4088,1134.0423 Q98.8153,1133.7725 98.1844,1133.7725 Q96.8397,1133.7725 96.1549,1134.8392 Q95.4701,1135.9058 95.4701,1138.0059 Q95.4701,1140.0977 96.1549,1141.1644 Q96.8397,1142.231 98.1844,1142.231 Q98.8153,1142.231 99.4088,1141.9612 Q100.0023,1141.6915 100.6331,1141.1104 Z " fill="#000000"/><text fill="#000000" font-family="sans-serif" font-size="14" lengthAdjust="spacing" textLength="43.374" x="112.16" y="1142.981">Paypal</text><line style="stroke:#181818;stroke-width:0.5;" x1="84.16" x2="157.534" y1="1153.69" y2="1153.69"/><line style="stroke:#181818;stroke-width:0.5;" x1="84.16" x2="157.534" y1="1161.69" y2="1161.69"/></g><!--class Schedule--><g class="entity" data-qualified-name="Schedule" data-source-line="76" id="ent0010"><rect fill="#F1F1F1" height="163.418" rx="2.5" ry="2.5" style="stroke:#181818;stroke-width:0.5;" width="335.791" x="294.7" y="270.98"/><ellipse cx="428.0726" cy="286.98" fill="#ADD1B2" rx="11" ry="11" style="stroke:#181818;stroke-width:1;"/><path d="M430.5457,293.1231 Q429.9646,293.4219 429.3255,293.5713 Q428.6863,293.7207 427.9808,293.7207 Q425.4739,293.7207 424.1541,292.0689 Q422.8343,290.417 422.8343,287.2959 Q422.8343,284.1665 424.1541,282.5147 Q425.4739,280.8628 427.9808,280.8628 Q428.6863,280.8628 429.3338,281.0122 Q429.9813,281.1616 430.5457,281.4605 L430.5457,284.1831 Q429.9148,283.6021 429.3213,283.3323 Q428.7278,283.0625 428.097,283.0625 Q426.7522,283.0625 426.0674,284.1292 Q425.3826,285.1958 425.3826,287.2959 Q425.3826,289.3877 426.0674,290.4544 Q426.7522,291.521 428.097,291.521 Q428.7278,291.521 429.3213,291.2512 Q429.9148,290.9815 430.5457,290.4004 Z " fill="#000000"/><text fill="#000000" font-family="sans-serif" font-size="14" lengthAdjust="spacing" textLength="60.5459" x="448.5726" y="292.271">Schedule</text><line style="stroke:#181818;stroke-width:0.5;" x1="295.7" x2="629.491" y1="302.98" y2="302.98"/><text fill="#000000" font-family="sans-serif" font-size="14" lengthAdjust="spacing" textLength="289.4883" x="300.7" y="320.5152">-scheduledFlights : List&lt;ScheduledFlight&gt;</text><line style="stroke:#181818;stroke-width:0.5;" x1="295.7" x2="629.491" y1="327.4683" y2="327.4683"/><text fill="#000000" font-family="sans-serif" font-size="14" lengthAdjust="spacing" textLength="323.791" x="300.7" y="345.0034">+getScheduledFlights() : List&lt;ScheduledFlight&gt;</text><text fill="#000000" font-family="sans-serif" font-size="14" lengthAdjust="spacing" textLength="160.624" x="300.7" y="361.4917">+scheduleFlight() : void</text><text fill="#000000" font-family="sans-serif" font-size="14" lengthAdjust="spacing" textLength="150.7256" x="300.7" y="377.98">+removeFlight() : void</text><text fill="#000000" font-family="sans-serif" font-size="14" lengthAdjust="spacing" textLength="220.083" x="300.7" y="394.4683">+removeScheduledFlight() : void</text><text fill="#000000" font-family="sans-serif" font-size="14" lengthAdjust="spacing" textLength="293.002" x="300.7" y="410.9566">+searchScheduledFlight() : ScheduledFlight</text><text fill="#000000" font-family="sans-serif" font-size="14" lengthAdjust="spacing" textLength="94.7051" x="300.7" y="427.4448">+clear() : void</text></g><!--class ScheduledFlight--><g class="entity" data-qualified-name="ScheduledFlight" data-source-line="85" id="ent0011"><rect fill="#F1F1F1" height="245.8594" rx="2.5" ry="2.5" style="stroke:#181818;stroke-width:0.5;" width="257.5469" x="729.61" y="114.76"/><ellipse cx="800.3278" cy="130.76" fill="#ADD1B2" rx="11" ry="11" style="stroke:#181818;stroke-width:1;"/><path d="M802.8009,136.9031 Q802.2199,137.2019 801.5807,137.3513 Q800.9415,137.5007 800.236,137.5007 Q797.7291,137.5007 796.4093,135.8489 Q795.0895,134.197 795.0895,131.0759 Q795.0895,127.9465 796.4093,126.2947 Q797.7291,124.6428 800.236,124.6428 Q800.9415,124.6428 801.589,124.7922 Q802.2365,124.9416 802.8009,125.2405 L802.8009,127.9631 Q802.1701,127.3821 801.5766,127.1123 Q800.983,126.8425 800.3522,126.8425 Q799.0075,126.8425 798.3226,127.9092 Q797.6378,128.9758 797.6378,131.0759 Q797.6378,133.1677 798.3226,134.2344 Q799.0075,135.301 800.3522,135.301 Q800.983,135.301 801.5766,135.0312 Q802.1701,134.7615 802.8009,134.1804 Z " fill="#000000"/><text fill="#000000" font-family="sans-serif" font-size="14" lengthAdjust="spacing" textLength="107.6113" x="820.8278" y="136.051">ScheduledFlight</text><line style="stroke:#181818;stroke-width:0.5;" x1="730.61" x2="986.1569" y1="146.76" y2="146.76"/><text fill="#000000" font-family="sans-serif" font-size="14" lengthAdjust="spacing" textLength="127.75" x="735.61" y="164.2952">-passengers : final</text><text fill="#000000" font-family="sans-serif" font-size="14" lengthAdjust="spacing" textLength="151.1563" x="735.61" y="180.7834">-departureTime : final</text><text fill="#000000" font-family="sans-serif" font-size="14" lengthAdjust="spacing" textLength="94.7051" x="735.61" y="197.2717">-100 : double</text><line style="stroke:#181818;stroke-width:0.5;" x1="730.61" x2="986.1569" y1="204.2248" y2="204.2248"/><text fill="#000000" font-family="sans-serif" font-size="14" lengthAdjust="spacing" textLength="220.2607" x="735.61" y="221.76">+getCrewMemberCapacity() : int</text><text fill="#000000" font-family="sans-serif" font-size="14" lengthAdjust="spacing" textLength="163.208" x="735.61" y="238.2483">+addPassengers() : void</text><text fill="#000000" font-family="sans-serif" font-size="14" lengthAdjust="spacing" textLength="188.0977" x="735.61" y="254.7366">+removePassengers() : void</text><text fill="#000000" font-family="sans-serif" font-size="14" lengthAdjust="spacing" textLength="130.9902" x="735.61" y="271.2248">+getCapacity() : int</text><text fill="#000000" font-family="sans-serif" font-size="14" lengthAdjust="spacing" textLength="192.1104" x="735.61" y="287.7131">+getAvailableCapacity() : int</text><text fill="#000000" font-family="sans-serif" font-size="14" lengthAdjust="spacing" textLength="188.3232" x="735.61" y="304.2014">+getDepartureTime() : Date</text><text fill="#000000" font-family="sans-serif" font-size="14" lengthAdjust="spacing" textLength="245.5469" x="735.61" y="320.6897">+getPassengers() : List&lt;Passenger&gt;</text><text fill="#000000" font-family="sans-serif" font-size="14" lengthAdjust="spacing" textLength="186.0879" x="735.61" y="337.178">+getCurrentPrice() : double</text><text fill="#000000" font-family="sans-serif" font-size="14" lengthAdjust="spacing" textLength="166.4414" x="735.61" y="353.6663">+setCurrentPrice() : void</text></g><!--class Flight--><g class="entity" data-qualified-name="Flight" data-source-line="99" id="ent0012"><rect fill="#F1F1F1" height="229.3711" rx="2.5" ry="2.5" style="stroke:#181818;stroke-width:0.5;" width="192.1953" x="366.5" y="7"/><ellipse cx="439.2207" cy="23" fill="#ADD1B2" rx="11" ry="11" style="stroke:#181818;stroke-width:1;"/><path d="M441.6938,29.1431 Q441.1128,29.4419 440.4736,29.5913 Q439.8345,29.7407 439.1289,29.7407 Q436.6221,29.7407 435.3022,28.0889 Q433.9824,26.437 433.9824,23.3159 Q433.9824,20.1865 435.3022,18.5347 Q436.6221,16.8828 439.1289,16.8828 Q439.8345,16.8828 440.4819,17.0322 Q441.1294,17.1816 441.6938,17.4805 L441.6938,20.2031 Q441.063,19.6221 440.4695,19.3523 Q439.876,19.0825 439.2451,19.0825 Q437.9004,19.0825 437.2156,20.1492 Q436.5308,21.2158 436.5308,23.3159 Q436.5308,25.4077 437.2156,26.4744 Q437.9004,27.541 439.2451,27.541 Q439.876,27.541 440.4695,27.2712 Q441.063,27.0015 441.6938,26.4204 Z " fill="#000000"/><text fill="#000000" font-family="sans-serif" font-size="14" lengthAdjust="spacing" textLength="38.2539" x="459.7207" y="28.291">Flight</text><line style="stroke:#181818;stroke-width:0.5;" x1="367.5" x2="557.6953" y1="39" y2="39"/><text fill="#000000" font-family="sans-serif" font-size="14" lengthAdjust="spacing" textLength="92.1484" x="372.5" y="56.5352">-number : int</text><text fill="#000000" font-family="sans-serif" font-size="14" lengthAdjust="spacing" textLength="135.5361" x="372.5" y="73.0234">-departure : Airport</text><text fill="#000000" font-family="sans-serif" font-size="14" lengthAdjust="spacing" textLength="111.46" x="372.5" y="89.5117">-arrival : Airport</text><text fill="#000000" font-family="sans-serif" font-size="14" lengthAdjust="spacing" textLength="114.8164" x="372.5" y="106">#aircraft : Object</text><line style="stroke:#181818;stroke-width:0.5;" x1="367.5" x2="557.6953" y1="112.9531" y2="112.9531"/><text fill="#000000" font-family="sans-serif" font-size="14" lengthAdjust="spacing" textLength="148.5996" x="372.5" y="130.4883">-checkValidity() : void</text><text fill="#000000" font-family="sans-serif" font-size="14" lengthAdjust="spacing" textLength="180.1953" x="372.5" y="146.9766">-isAircraftValid() : boolean</text><text fill="#000000" font-family="sans-serif" font-size="14" lengthAdjust="spacing" textLength="149.8916" x="372.5" y="163.4648">+getAircraft() : Object</text><text fill="#000000" font-family="sans-serif" font-size="14" lengthAdjust="spacing" textLength="127.7021" x="372.5" y="179.9531">+getNumber() : int</text><text fill="#000000" font-family="sans-serif" font-size="14" lengthAdjust="spacing" textLength="171.1104" x="372.5" y="196.4414">+getDeparture() : Airport</text><text fill="#000000" font-family="sans-serif" font-size="14" lengthAdjust="spacing" textLength="147.2871" x="372.5" y="212.9297">+getArrival() : Airport</text><text fill="#000000" font-family="sans-serif" font-size="14" lengthAdjust="spacing" textLength="127.2988" x="372.5" y="229.418">+toString() : String</text></g><!--class PassengerPlane--><g class="entity" data-qualified-name="PassengerPlane" data-source-line="112" id="ent0013"><rect fill="#F1F1F1" height="97.4648" rx="2.5" ry="2.5" style="stroke:#181818;stroke-width:0.5;" width="181.6816" x="371.76" y="782.96"/><ellipse cx="407.0944" cy="798.96" fill="#ADD1B2" rx="11" ry="11" style="stroke:#181818;stroke-width:1;"/><path d="M409.5675,805.1031 Q408.9865,805.4019 408.3473,805.5513 Q407.7081,805.7007 407.0026,805.7007 Q404.4957,805.7007 403.1759,804.0489 Q401.8561,802.397 401.8561,799.2759 Q401.8561,796.1465 403.1759,794.4947 Q404.4957,792.8428 407.0026,792.8428 Q407.7081,792.8428 408.3556,792.9922 Q409.0031,793.1416 409.5675,793.4405 L409.5675,796.1631 Q408.9367,795.5821 408.3432,795.3123 Q407.7496,795.0425 407.1188,795.0425 Q405.7741,795.0425 405.0892,796.1092 Q404.4044,797.1758 404.4044,799.2759 Q404.4044,801.3677 405.0892,802.4344 Q405.7741,803.501 407.1188,803.501 Q407.7496,803.501 408.3432,803.2312 Q408.9367,802.9615 409.5675,802.3804 Z " fill="#000000"/><text fill="#000000" font-family="sans-serif" font-size="14" lengthAdjust="spacing" textLength="104.4941" x="425.6131" y="804.251">PassengerPlane</text><line style="stroke:#181818;stroke-width:0.5;" x1="372.76" x2="552.4416" y1="814.96" y2="814.96"/><text fill="#000000" font-family="sans-serif" font-size="14" lengthAdjust="spacing" textLength="106.7158" x="377.76" y="832.4952">+model : String</text><text fill="#000000" font-family="sans-serif" font-size="14" lengthAdjust="spacing" textLength="169.6816" x="377.76" y="848.9834">+passengerCapacity : int</text><text fill="#000000" font-family="sans-serif" font-size="14" lengthAdjust="spacing" textLength="131.6055" x="377.76" y="865.4717">+crewCapacity : int</text><line style="stroke:#181818;stroke-width:0.5;" x1="372.76" x2="552.4416" y1="872.4248" y2="872.4248"/></g><!--class PassengerDrone--><g class="entity" data-qualified-name="PassengerDrone" data-source-line="117" id="ent0014"><rect fill="#F1F1F1" height="64.4883" rx="2.5" ry="2.5" style="stroke:#181818;stroke-width:0.5;" width="141.792" x="391.7" y="915.45"/><ellipse cx="406.7" cy="931.45" fill="#ADD1B2" rx="11" ry="11" style="stroke:#181818;stroke-width:1;"/><path d="M409.1731,937.5931 Q408.5921,937.8919 407.9529,938.0413 Q407.3138,938.1907 406.6082,938.1907 Q404.1014,938.1907 402.7815,936.5389 Q401.4617,934.887 401.4617,931.7659 Q401.4617,928.6365 402.7815,926.9847 Q404.1014,925.3328 406.6082,925.3328 Q407.3138,925.3328 407.9612,925.4822 Q408.6087,925.6316 409.1731,925.9305 L409.1731,928.6531 Q408.5423,928.0721 407.9488,927.8023 Q407.3553,927.5325 406.7244,927.5325 Q405.3797,927.5325 404.6949,928.5992 Q404.0101,929.6658 404.0101,931.7659 Q404.0101,933.8577 404.6949,934.9244 Q405.3797,935.991 406.7244,935.991 Q407.3553,935.991 407.9488,935.7212 Q408.5423,935.4515 409.1731,934.8704 Z " fill="#000000"/><text fill="#000000" font-family="sans-serif" font-size="14" lengthAdjust="spacing" textLength="109.792" x="420.7" y="936.741">PassengerDrone</text><line style="stroke:#181818;stroke-width:0.5;" x1="392.7" x2="532.492" y1="947.45" y2="947.45"/><text fill="#000000" font-family="sans-serif" font-size="14" lengthAdjust="spacing" textLength="93.3789" x="397.7" y="964.9852">-model : final</text><line style="stroke:#181818;stroke-width:0.5;" x1="392.7" x2="532.492" y1="971.9383" y2="971.9383"/></g><!--class Helicopter--><g class="entity" data-qualified-name="Helicopter" data-source-line="120" id="ent0015"><rect fill="#F1F1F1" height="113.9531" rx="2.5" ry="2.5" style="stroke:#181818;stroke-width:0.5;" width="211.4795" x="356.86" y="1014.71"/><ellipse cx="423.5856" cy="1030.71" fill="#ADD1B2" rx="11" ry="11" style="stroke:#181818;stroke-width:1;"/><path d="M426.0587,1036.8531 Q425.4777,1037.1519 424.8385,1037.3013 Q424.1994,1037.4507 423.4938,1037.4507 Q420.987,1037.4507 419.6671,1035.7989 Q418.3473,1034.147 418.3473,1031.0259 Q418.3473,1027.8965 419.6671,1026.2447 Q420.987,1024.5928 423.4938,1024.5928 Q424.1994,1024.5928 424.8468,1024.7422 Q425.4943,1024.8916 426.0587,1025.1905 L426.0587,1027.9131 Q425.4279,1027.3321 424.8344,1027.0623 Q424.2409,1026.7925 423.61,1026.7925 Q422.2653,1026.7925 421.5805,1027.8592 Q420.8956,1028.9258 420.8956,1031.0259 Q420.8956,1033.1177 421.5805,1034.1844 Q422.2653,1035.251 423.61,1035.251 Q424.2409,1035.251 424.8344,1034.9812 Q425.4279,1034.7115 426.0587,1034.1304 Z " fill="#000000"/><text fill="#000000" font-family="sans-serif" font-size="14" lengthAdjust="spacing" textLength="69.5283" x="444.0856" y="1036.001">Helicopter</text><line style="stroke:#181818;stroke-width:0.5;" x1="357.86" x2="567.3395" y1="1046.71" y2="1046.71"/><text fill="#000000" font-family="sans-serif" font-size="14" lengthAdjust="spacing" textLength="93.3789" x="362.86" y="1064.2452">-model : final</text><text fill="#000000" font-family="sans-serif" font-size="14" lengthAdjust="spacing" textLength="178.3428" x="362.86" y="1080.7334">-passengerCapacity : final</text><line style="stroke:#181818;stroke-width:0.5;" x1="357.86" x2="567.3395" y1="1087.6866" y2="1087.6866"/><text fill="#000000" font-family="sans-serif" font-size="14" lengthAdjust="spacing" textLength="136.5752" x="362.86" y="1105.2217">+getModel() : String</text><text fill="#000000" font-family="sans-serif" font-size="14" lengthAdjust="spacing" textLength="199.4795" x="362.86" y="1121.71">+getPassengerCapacity() : int</text></g><!--link Customer to Order--><g class="link" data-entity-1="ent0003" data-entity-2="ent0006" data-link-type="dependency" data-source-line="127" id="lnk16"><path codeLine="127" d="M222.87,620.81 C257.58,621.88 290.9209,622.2049 327.5109,621.5649" fill="none" id="Customer-to-Order" style="stroke:#181818;stroke-width:1;"/><polygon fill="#181818" points="333.51,621.46,324.4414,617.618,328.5108,621.5474,324.5813,625.6168,333.51,621.46" style="stroke:#181818;stroke-width:1;"/></g><!--link Order to Customer--><g class="link" data-entity-1="ent0006" data-entity-2="ent0003" data-link-type="dependency" data-source-line="129" id="lnk18"><path codeLine="129" d="M333.51,595.92 C296.92,595.28 263.5772,595.3151 228.8672,596.3851" fill="none" id="Order-to-Customer" style="stroke:#181818;stroke-width:1;"/><polygon fill="#181818" points="222.87,596.57,231.989,600.2908,227.8676,596.4159,231.7425,592.2946,222.87,596.57" style="stroke:#181818;stroke-width:1;"/></g><!--link Airport to Flight--><g class="link" data-entity-1="ent0005" data-entity-2="ent0012" data-link-type="dependency" data-source-line="128" id="lnk17"><path codeLine="128" d="M234.98,146.59 C277.54,148.69 319.494,148.7495 360.274,145.9595" fill="none" id="Airport-to-Flight" style="stroke:#181818;stroke-width:1;"/><polygon fill="#181818" points="366.26,145.55,357.008,142.1736,361.2717,145.8913,357.554,150.155,366.26,145.55" style="stroke:#181818;stroke-width:1;"/></g><!--link Flight to Airport--><g class="link" data-entity-1="ent0012" data-entity-2="ent0005" data-link-type="dependency" data-source-line="134" id="lnk23"><path codeLine="134" d="M366.26,121.69 C325.48,121.69 283.54,121.69 240.98,121.69" fill="none" id="Flight-to-Airport" style="stroke:#181818;stroke-width:1;"/><polygon fill="#181818" points="234.98,121.69,243.98,125.69,239.98,121.69,243.98,117.69,234.98,121.69" style="stroke:#181818;stroke-width:1;"/></g><!--link Flight to Airport--><g class="link" data-entity-1="ent0012" data-entity-2="ent0005" data-link-type="dependency" data-source-line="135" id="lnk24"><path codeLine="135" d="M366.26,97.83 C325.48,95.04 283.5327,94.3943 240.9727,96.4943" fill="none" id="Flight-to-Airport-1" style="stroke:#181818;stroke-width:1;"/><polygon fill="#181818" points="234.98,96.79,244.1662,100.3416,239.9739,96.5436,243.7719,92.3513,234.98,96.79" style="stroke:#181818;stroke-width:1;"/></g><!--link Order to Passenger--><g class="link" data-entity-1="ent0006" data-entity-2="ent0004" data-link-type="dependency" data-source-line="130" id="lnk19"><path codeLine="130" d="M591.72,580.71 C655.82,566.71 725.178,551.5596 779.188,539.7696" fill="none" id="Order-to-Passenger" style="stroke:#181818;stroke-width:1;"/><polygon fill="#181818" points="785.05,538.49,775.404,536.5015,780.165,539.5564,777.1101,544.3174,785.05,538.49" style="stroke:#181818;stroke-width:1;"/></g><!--reverse link Order to FlightOrder--><g class="link" data-entity-1="ent0006" data-entity-2="ent0007" data-link-type="extension" data-source-line="131" id="lnk20"><path codeLine="131" d="M609.286,641.249 C640.716,648.279 657.26,651.97 690.23,659.33" fill="none" id="Order-backto-FlightOrder" style="stroke:#181818;stroke-width:1;"/><polygon fill="none" points="591.72,637.32,607.9763,647.1043,610.5956,635.3937,591.72,637.32" style="stroke:#181818;stroke-width:1;"/></g><!--link Schedule to ScheduledFlight--><g class="link" data-entity-1="ent0010" data-entity-2="ent0011" data-link-type="dependency" data-source-line="132" id="lnk21"><path codeLine="132" d="M630.88,303.84 C663.77,294.23 692.0307,285.9823 723.3907,276.8223" fill="none" id="Schedule-to-ScheduledFlight" style="stroke:#181818;stroke-width:1;"/><polygon fill="#181818" points="729.15,275.14,719.3895,273.8238,724.3505,276.5419,721.6325,281.5029,729.15,275.14" style="stroke:#181818;stroke-width:1;"/></g><!--reverse link Flight to ScheduledFlight--><g class="link" data-entity-1="ent0012" data-entity-2="ent0011" data-link-type="extension" data-source-line="133" id="lnk22"><path codeLine="133" d="M576.436,154.9276 C627.546,169.9876 673.9,183.64 729.24,199.94" fill="none" id="Flight-backto-ScheduledFlight" style="stroke:#181818;stroke-width:1;"/><polygon fill="none" points="559.17,149.84,574.7402,160.6829,578.1319,149.1722,559.17,149.84" style="stroke:#181818;stroke-width:1;"/></g><?plantuml-src bLPRRzCm57xlhuZ42wYAD5wdgLBLWgYqiOenU41xSEtJrio9AzlfL63_7ViuTkoa6UDbNRvpzUTpiNxazO4eKXLK4AtdnYY-QGoigApl-2yeBYO2jgOmib1yjpS5umgeuRAUJD2Y-DBKDQZYz-Iv1HQDDh92g2XAg0WNnMLnPntNEuVKf88Ca8g1qXQwvjfStRglcSMdL04nWDzltrdnH-4om6zdnZN--uq8pb2-aL80gPtf3im75nZn66cgK_WeEMjrFzkKXgeHJJGnf4QqbwtEX6WI65dRFr3l0YKj0LjU4p6IGB2SStMGoforAwbasRUGbBYRIR4jSXR9zHIwV4iYX7m2PYDGHRQeueF_U1XdnQ8B6tM8NhUnXn8VCg6ioy5nbeeJdkUzx1A_Dhz03nBkoU4iFVP1SUguORBP240YYD2G5Kb9Gw5Unff5st1RaRLuVxCskvKlkFlxrR95rYuWWZ6aErq79sSBmH1F8Zk3J9ROn1GI8lEqz40fc7Ez45B3e4bSk4wGLMpIQfxUhexIihsZUs2D03Quv9vazg-6FIX9GNk5xzpi5meODmkYs19CwDXNwVSqIsgnbLuhiDIOUSrU5NvDJcio34fEByOA2cUiut2CjfvNKiccDbcbrasrmQBi9YIpSz02I_k3HpeUC_7H7MbmjtDqFMYi3kqgbUkph5Wd7TwRQAS34SdG3_VjJwLxTV52LVnt6Ks3SmzbvrDGoUEueESjqz105DsVq-XXk9aiGsh8Ia_JSv6DapYW6DYjQne5Nta-rDzVN6HNu-Q5WgSRS4Mn80T2kJbXQ5vZBeInaRxtXnuHEhzdlBaAETf-8pRyY7oPfewojYvVDwTm02fbct5aPWwaPoPJkn13f_ZaEb8jr6vEx36bk6sH37n3sirYqTlDJ_kamSRQ0tt4aW_7Rkcoiokieh7tHf2ZABh4FOffZh68U9SOkl89zoL6-fO_zr287Ay5gNqNJYkxgREdrpJMOhZQBYNxs7hgeGFVIoLRtsNmxUisQ7u2mQaycB0rSgsq6P9GwKAvSGR3DyIwRnR9V9vCudkpB6V-HJ09poQ7j5thTva3uiRjeEY_nQx-b6Nst8pZpMdt1q9RacWq8dDcuIQ7q5y0?></g></svg>